<svg xmlns="http://www.w3.org/2000/svg" version="1.1" xmlns:xlink="http://www.w3.org/1999/xlink" xmlns:svgjs="http://svgjs.dev/svgjs" width="1000" height="1000" viewBox="0 0 1000 1000"><rect width="1000" height="1000" fill="#ffffff"></rect><g transform="matrix(0.7,0,0,0.7,149.57575757575756,282.1265587044535)"><svg viewBox="0 0 396 247" data-background-color="#ffffff" preserveAspectRatio="xMidYMid meet" height="623" width="1000" xmlns="http://www.w3.org/2000/svg" xmlns:xlink="http://www.w3.org/1999/xlink"><g id="tight-bounds" transform="matrix(1,0,0,1,0.2400000000000091,-0.09999999999999432)"><svg viewBox="0 0 395.52 247.2" height="247.2" width="395.52"><g><svg></svg></g><g><svg viewBox="0 0 395.52 247.2" height="247.2" width="395.52"><g transform="matrix(1,0,0,1,39.55199999999999,90.02651807943093)"><svg viewBox="0 0 316.416 67.14696384113813" height="67.14696384113813" width="316.416"><g><svg viewBox="0 0 316.416 67.14696384113813" height="67.14696384113813" width="316.416"><g><svg viewBox="0 0 316.416 67.14696384113813" height="67.14696384113813" width="316.416"><g><svg viewBox="0 0 316.416 67.14696384113813" height="67.14696384113813" width="316.416"><g><svg viewBox="0 0 316.416 67.14696384113813" height="67.14696384113813" width="316.416"><g><svg viewBox="0 0 316.416 67.14696384113813" height="67.14696384113813" width="316.416"><g transform="matrix(1,0,0,1,0,0)"><svg width="316.416" viewBox="3.8499999046325684 -35.349998474121094 168.6899871826172 35.79999923706055" height="67.14696384113813" data-palette-color="#89939e"><path d="M12.55-30.2L12.55-30.2 7.9-30.2 7.9-16.75 13-16.75Q16.45-16.75 18.28-18.63 20.1-20.5 20.1-23.45L20.1-23.45Q20.1-30.2 12.55-30.2ZM13.15-13.3L12.75-13.3 7.9-13.3 7.9 0 3.85 0 3.85-33.7 12.3-33.7Q18.15-33.7 21.18-30.95 24.2-28.2 24.2-23.35L24.2-23.35Q24.1-19.85 22.35-17.4 20.6-14.95 17.4-13.95L17.4-13.95 26.25 0 21.4 0 13.15-13.3ZM53.35-12.6L53.35-12.6Q53.35-6.95 50.15-3.25 46.95 0.45 41.35 0.45L41.35 0.45Q35.9 0.45 32.72-3.23 29.55-6.9 29.55-12.5L29.55-12.5Q29.55-18.15 32.82-21.93 36.1-25.7 41.35-25.7L41.35-25.7Q47.1-25.7 50.22-22 53.35-18.3 53.35-12.6ZM33.65-12.55L33.65-12.55Q33.65-8.6 35.75-5.83 37.85-3.05 41.35-3.05L41.35-3.05Q45.15-3.05 47.2-5.78 49.25-8.5 49.25-12.55L49.25-12.55Q49.25-16.75 47.3-19.48 45.35-22.2 41.35-22.2L41.35-22.2Q37.75-22.2 35.7-19.4 33.65-16.6 33.65-12.55ZM81.45-12.6L81.45-12.6Q81.45-6.95 78.25-3.25 75.05 0.45 69.45 0.45L69.45 0.45Q64 0.45 60.82-3.23 57.65-6.9 57.65-12.5L57.65-12.5Q57.65-18.15 60.92-21.93 64.2-25.7 69.45-25.7L69.45-25.7Q75.2-25.7 78.32-22 81.45-18.3 81.45-12.6ZM61.75-12.55L61.75-12.55Q61.75-8.6 63.85-5.83 65.95-3.05 69.45-3.05L69.45-3.05Q73.25-3.05 75.3-5.78 77.34-8.5 77.34-12.55L77.34-12.55Q77.34-16.75 75.4-19.48 73.45-22.2 69.45-22.2L69.45-22.2Q65.84-22.2 63.8-19.4 61.75-16.6 61.75-12.55ZM107.59-25.35L98.54 0 93.69 0 84.84-25.35 88.94-25.35 92.44-14.65 96.14-3.1Q96.59-5.25 99.89-14.65L99.89-14.65 103.49-25.35 107.59-25.35ZM130.99-5L130.99-1.3Q128.04 0.25 123.79 0.25L123.79 0.25Q118.04 0.25 114.52-3.28 110.99-6.8 110.99-12.6L110.99-12.6Q110.99-18.65 114.14-22.15 117.29-25.65 122.24-25.65L122.24-25.65Q126.99-25.65 129.79-22.6 132.59-19.55 132.59-13.95L132.59-13.95Q132.59-12.35 132.34-11L132.34-11 115.04-11Q115.49-7.25 117.89-5.25 120.29-3.25 124.19-3.25L124.19-3.25Q128.44-3.25 130.99-5L130.99-5ZM122.24-22.2L122.24-22.2Q119.39-22.2 117.39-20.15 115.39-18.1 115.04-14.3L115.04-14.3 128.64-14.3 128.64-15.3Q128.64-18.45 126.94-20.33 125.24-22.2 122.24-22.2ZM142.74-35.35L142.74 0 138.79 0 138.79-35.35 142.74-35.35ZM172.54-12.6L172.54-12.6Q172.54-6.95 169.34-3.25 166.14 0.45 160.53 0.45L160.53 0.45Q155.09 0.45 151.91-3.23 148.74-6.9 148.74-12.5L148.74-12.5Q148.74-18.15 152.01-21.93 155.28-25.7 160.53-25.7L160.53-25.7Q166.29-25.7 169.41-22 172.54-18.3 172.54-12.6ZM152.84-12.55L152.84-12.55Q152.84-8.6 154.94-5.83 157.03-3.05 160.53-3.05L160.53-3.05Q164.34-3.05 166.39-5.78 168.44-8.5 168.44-12.55L168.44-12.55Q168.44-16.75 166.49-19.48 164.53-22.2 160.53-22.2L160.53-22.2Q156.94-22.2 154.89-19.4 152.84-16.6 152.84-12.55Z" opacity="1" transform="matrix(1,0,0,1,0,0)" fill="#89939e" class="undefined-text-0" data-fill-palette-color="primary" id="text-0"></path></svg></g></svg></g></svg></g></svg></g></svg></g></svg></g></svg></g><g><path xmlns="http://www.w3.org/2000/svg" d="M0 247.2v-247.2h395.52v247.2zM389.465 241.145v-235.09h-383.41v235.09z" fill="#89939e" fill-rule="nonzero" stroke="none" stroke-width="1" stroke-linecap="butt" stroke-linejoin="miter" stroke-miterlimit="10" stroke-dasharray="" stroke-dashoffset="0" font-family="none" font-weight="none" font-size="none" text-anchor="none" style="mix-blend-mode: normal" data-fill-palette-color="tertiary"></path></g></svg></g><defs></defs></svg><rect width="395.52" height="247.2" fill="none" stroke="none" visibility="hidden"></rect></g></svg></g></svg>